
<svg xmlns="http://www.w3.org/2000/svg" viewBox="0 0 512 490.67"><defs><style>.cls-1{fill:#7004bc;}</style></defs><g id="Capa_2" data-name="Capa 2"><g id="Capa_1-2" data-name="Capa 1"><path class="cls-1" d="M186.67,375.72v98.95a16,16,0,0,0,11,15.21,16.21,16.21,0,0,0,5,.79,16,16,0,0,0,12.88-6.53l57.88-78.76Z"/><path class="cls-1" d="M505.28,3A16,16,0,0,0,488.6,1.82L8.6,252.48a16,16,0,0,0,2.22,29.34l133.44,45.61,284.18-243L208.53,349.38l223.64,76.44a16.51,16.51,0,0,0,5.16.85A16,16,0,0,0,453.16,413L511.83,18.37A16,16,0,0,0,505.28,3Z"/></g></g></svg>