
<svg xmlns="http://www.w3.org/2000/svg" viewBox="0 0 352.07 512"><defs><style>.cls-1{fill:#7004bc;}</style></defs><g id="Capa_2" data-name="Capa 2"><g id="Layer_1" data-name="Layer 1"><path class="cls-1" d="M327.61,87.68C296.54,34.05,241.35,1.29,180,0c-2.62,0-5.26,0-7.88,0-61.37,1.25-116.56,34-147.64,87.64C-7.31,142.49-8.18,208.33,22.13,263.8l127,232.39a3.07,3.07,0,0,1,.17.31,30.87,30.87,0,0,0,53.54,0l.18-.31,127-232.39c30.3-55.47,29.43-121.31-2.33-176.12ZM176,232a72,72,0,1,1,72-72A72.08,72.08,0,0,1,176,232Z"/></g></g></svg>