<svg xmlns="http://www.w3.org/2000/svg" viewBox="0 0 127.22 115.19"><defs><style>.cls-1{isolation:isolate;}.cls-2{fill:#eb1d1d;}.cls-3{opacity:0.2;mix-blend-mode:multiply;}.cls-4{fill:#fff;}</style></defs><g class="cls-1"><g id="Capa_2" data-name="Capa 2"><g id="Layer_1" data-name="Layer 1"><circle class="cls-2" cx="53.96" cy="57.21" r="53.96"/><path class="cls-3" d="M127.21,12.82c-.06-1.41-.71-3.38-3.44-4.8C119.17,5.64,108.18,4.6,106,4.41,92,3.21,88.74,5.32,87.66,6A212.44,212.44,0,0,0,59.9,27.22a78.6,78.6,0,0,1-5.83-17c-.75-4-5-5.46-6.45-6-4.14-1.45-10.87-2.44-18-2.64-12.47-.36-15,1.84-16,2.67a5.43,5.43,0,0,0-1.88,5.16c2.75,14.62,11.61,31,21.1,46.69C25.16,65.5,17.79,75.28,10.64,84.77c-3,4-6.11,8.12-9.19,12.15A5,5,0,0,0,2.55,104c3.64,2.79,15.57,3.91,19.14,4.18l.48,0c16.38,1.2,18.83-2,19.89-3.39,3.09-4.05,6.21-8.19,9.23-12.19L54.8,88C62.62,97.87,69.59,105.19,76,110.3,79.43,113,86.4,114.45,93.45,115c7.68.56,15.45,0,18.76-1.31s4-3.46,4.15-4.66a5.67,5.67,0,0,0-2.34-5.32c-10.76-8.54-23.35-23.86-36.53-44.43,15.11-17.77,29.36-30.37,47.17-41.76A5.2,5.2,0,0,0,127.21,12.82Z"/><path class="cls-4" d="M120.26,6.85c-.17-1.4-1-3.33-3.78-4.54-4.77-2-15.8-2.27-18-2.3-14-.18-17.16,2.16-18.19,2.93A211.87,211.87,0,0,0,54.18,26.13,79.13,79.13,0,0,1,47.12,9.57c-1-3.89-5.42-5.08-6.86-5.47C36,3,29.24,2.46,22.11,2.77,9.65,3.33,7.26,5.71,6.36,6.61a5.42,5.42,0,0,0-1.5,5.28c3.81,14.38,13.84,30.05,24.45,45-7,9.93-13.62,20.22-20,30.21C6.55,91.32,3.75,95.66,1,99.9a5,5,0,0,0,1.63,7c3.83,2.52,15.81,2.76,19.39,2.77h.48c16.43,0,18.64-3.38,19.59-4.83,2.79-4.26,5.6-8.62,8.31-12.83l3.17-4.9c8.51,9.25,16,16,22.8,20.67,3.58,2.43,10.64,3.38,17.71,3.38,7.7,0,15.4-1.12,18.61-2.67s3.71-3.75,3.8-5a5.66,5.66,0,0,0-2.72-5.14c-11.35-7.72-25-22.09-39.68-41.63,13.78-18.83,27.07-32.44,44-45.1A5.2,5.2,0,0,0,120.26,6.85Z"/><path class="cls-2" d="M83,6.57a208,208,0,0,0-29.78,27.2c-4.06-7-8.44-15.19-10.52-23-1.36-5.11-34.62-4.24-33.5,0,4,15.07,15.49,32,25.64,46.18C24.3,71.69,14.72,87.2,4.77,102.39c-1.86,2.83,30.56,4.48,33.49,0C43.19,94.86,48,87.26,53,79.7c7.44,8.44,16.66,18,25.94,24.36,7.17,4.87,38.22,2.14,32.3-1.89C95.7,91.63,79.6,72,68.44,56.82,81.6,38.43,95.25,23.09,115.34,8.06,119.77,4.75,88,2.86,83,6.57Z"/></g></g></g></svg>