<svg xmlns="http://www.w3.org/2000/svg" viewBox="0 0 164.78 114.02"><defs><style>.cls-1{isolation:isolate;}.cls-2{fill:#23b502;}.cls-3{opacity:0.2;mix-blend-mode:multiply;}.cls-4{fill:#fff;}</style></defs><g class="cls-1"><g id="Capa_2" data-name="Capa 2"><g id="Layer_1" data-name="Layer 1"><circle class="cls-2" cx="63.19" cy="60.06" r="53.96" transform="translate(-18.17 28.75) rotate(-22.5)"/><path class="cls-3" d="M164.17,13c-1.66-3.19-7.52-5.37-17.42-6.5-5.43-.61-15.44-1.17-21.57,2-28,14.56-50.8,37.43-70.13,58.6L44.31,47.88c-.76-1.34-2.52-4.5-18-5.76-5.43-.45-15.22-.82-19.74,1.71A6,6,0,0,0,4,52.25l26.88,48.14c1.16,2.08,3.73,4.18,14.53,5.4,1.5.17,3.51.37,5.74.51,7,.42,16.23.26,19.29-3.13,3.31-3.65,6.66-7.42,9.91-11.06,24.11-27,49-55,81.11-71.68C164.87,18.67,165.4,15.36,164.17,13Z"/><path class="cls-4" d="M158.47,5.54C156.62,2.46,150.64.63,140.68.11c-5.45-.29-15.48-.24-21.4,3.31C92.22,19.65,70.84,43.86,52.83,66.17L40.94,47.62c-.83-1.3-2.78-4.34-18.26-4.67-5.45-.11-15.24.11-19.6,2.91A6,6,0,0,0,1,54.42l29.75,46.42c1.29,2,4,4,14.83,4.52,1.51.07,3.52.15,5.76.15,7,0,16.22-.72,19.07-4.29,3.07-3.85,6.2-7.81,9.22-11.64,22.43-28.46,45.62-57.88,76.61-76.47C159.51,11.15,159.84,7.82,158.47,5.54Z"/><path class="cls-2" d="M121.61,7.31C93.9,23.93,72.53,48.71,52.41,73.94Q44.78,62,37.12,50.07c-2.26-3.53-36.07-4-32.3,1.91L34.57,98.39c2.14,3.35,29.52,3.47,32.29,0,25.75-32.22,51.05-67.58,87.05-89.17C159.81,5.68,130.88,1.76,121.61,7.31Z"/></g></g></g></svg>